# xmcd CD database file
#
# Track frame offsets:
#	150
#	19688
#	40114
#	53742
#	70792
#	96098
#	107998
#	127319
#	140424
#	157570
#	173083
#	189876
#	205799
#	220857
#	238520
#	252270
#	271648
#	285374
#
# Disc length: 4057 seconds
#
# Revision: 1
# Processed by: cddbd v1.4PL0 Copyright (c) Steve Scherf et al.
# Submitted via: CDex 1.51
#
DISCID=ef0fd712
DTITLE=Divers - Havana Cafe
DYEAR=1900
DGENRE=Salsa
TTITLE0=Chan Chan [Compay Segundo]
TTITLE1=Compositor Confundido [Ibrahim Ferrer]
TTITLE2=Como Siento Yo [Ruben Gonzales]
TTITLE3=Al Vaiven De Mi Carreta [Eliades Ochoa Y El Cuarteto Patria]
TTITLE4=El Charlatan [Orquesta Aragon]
TTITLE5=Como La Mariposa [Leyanis Lopez]
TTITLE6=Sabroso [Compay Segundo]
TTITLE7=Revive La Ilusion [Septeto Habanero]
TTITLE8=Campina [Afro-Cuban Jazz Project]
TTITLE9=Ay Candela [Ibrahim Ferrer Con Los Bocucos]
TTITLE10=El Misterio De Tu Ojos [Zaida Reyte and Alfredo Alonso]
TTITLE11=A La Orilla Del Mar [Trio Mira Ores]
TTITLE12=A Una Coqueta [Floricelda and Candida Faez]
TTITLE13=Sublime Ilusion [Lucia Lago and Lusson Bueno]
TTITLE14=Ella Y Yo [Mercedes and Esperanza Ferrin]
TTITLE15=Flor De Venganza [Floricelda and Candida Faez]
TTITLE16=Ray Joaquin [Mongo Santamaria]
TTITLE17=Este Vacilon [La Familia Valera Miranda]
EXTD=
EXTT0=
EXTT1=
EXTT2=
EXTT3=
EXTT4=
EXTT5=
EXTT6=
EXTT7=
EXTT8=
EXTT9=
EXTT10=
EXTT11=
EXTT12=
EXTT13=
EXTT14=
EXTT15=
EXTT16=
EXTT17=
PLAYORDER=
